<svg width="120" height="120" viewBox="0 0 120 120" xmlns="http://www.w3.org/2000/svg">
  <defs>
    <linearGradient id="grad1" x1="0%" y1="0%" x2="100%" y2="100%">
      <stop offset="0%" style="stop-color:#007bff;stop-opacity:1" />
      <stop offset="100%" style="stop-color:#0056b3;stop-opacity:1" />
    </linearGradient>
    <linearGradient id="grad2" x1="0%" y1="0%" x2="100%" y2="100%">
      <stop offset="0%" style="stop-color:#ffffff;stop-opacity:1" />
      <stop offset="100%" style="stop-color:#f0f0f0;stop-opacity:1" />
    </linearGradient>
  </defs>
  
  <!-- Background -->
  <rect width="120" height="120" rx="15" ry="15" fill="url(#grad1)"/>
  
  <!-- School building -->
  <rect x="20" y="40" width="80" height="50" rx="5" ry="5" fill="url(#grad2)"/>
  <rect x="25" y="45" width="15" height="15" fill="#007bff"/>
  <rect x="45" y="45" width="15" height="15" fill="#007bff"/>
  <rect x="65" y="45" width="15" height="15" fill="#007bff"/>
  <rect x="25" y="65" width="15" height="15" fill="#007bff"/>
  <rect x="45" y="65" width="15" height="15" fill="#007bff"/>
  <rect x="65" y="65" width="15" height="15" fill="#007bff"/>
  
  <!-- Door -->
  <rect x="50" y="75" width="20" height="15" fill="#8B4513"/>
  
  <!-- Roof -->
  <polygon points="15,40 60,15 105,40" fill="#654321"/>
  
  <!-- Chimney -->
  <rect x="75" y="20" width="5" height="15" fill="#654321"/>
  
  <!-- Tree -->
  <rect x="10" y="80" width="5" height="20" fill="#8B4513"/>
  <circle cx="12.5" cy="75" r="10" fill="#228B22"/>
  
  <!-- Text -->
  <text x="60" y="105" text-anchor="middle" fill="#fff" font-family="Arial" font-size="10" font-weight="bold">BUNER</text>
  <text x="60" y="115" text-anchor="middle" fill="#fff" font-family="Arial" font-size="8" font-weight="bold">EDUCATION ACADEMY</text>
</svg>